<mxfile host="65bd71144e">
    <diagram id="4Rq1OEVJDxZ-_vI7V0yn" name="Page-1">
        <mxGraphModel dx="496" dy="714" grid="1" gridSize="10" guides="1" tooltips="1" connect="1" arrows="1" fold="1" page="1" pageScale="1" pageWidth="850" pageHeight="1100" math="0" shadow="0">
            <root>
                <mxCell id="0"/>
                <mxCell id="1" parent="0"/>
                <mxCell id="4" value="Image" style="whiteSpace=wrap;html=1;aspect=fixed;strokeColor=none;strokeWidth=1;fillColor=#ffe6cc;" parent="1" vertex="1">
                    <mxGeometry x="315" y="110" width="110" height="110" as="geometry"/>
                </mxCell>
                <mxCell id="6" value="" style="endArrow=classic;html=1;exitX=0.5;exitY=1;exitDx=0;exitDy=0;" parent="1" source="4" edge="1">
                    <mxGeometry width="50" height="50" relative="1" as="geometry">
                        <mxPoint x="370" y="240" as="sourcePoint"/>
                        <mxPoint x="370" y="290" as="targetPoint"/>
                    </mxGeometry>
                </mxCell>
                <mxCell id="14" value="" style="shape=flexArrow;endArrow=classic;html=1;entryX=1;entryY=0.5;entryDx=0;entryDy=0;fillColor=#f8cecc;strokeColor=none;startArrow=none;exitX=0;exitY=0;exitDx=145;exitDy=42.5;exitPerimeter=0;" parent="1" source="16" target="8" edge="1">
                    <mxGeometry width="50" height="50" relative="1" as="geometry">
                        <mxPoint x="360" y="385" as="sourcePoint"/>
                        <mxPoint x="370" y="470" as="targetPoint"/>
                    </mxGeometry>
                </mxCell>
                <mxCell id="15" value="Classification head (Linear layer)" style="text;html=1;strokeColor=none;fillColor=none;align=center;verticalAlign=middle;whiteSpace=wrap;rounded=0;strokeWidth=2;rotation=0;" parent="1" vertex="1">
                    <mxGeometry x="150" y="462" width="130" height="30" as="geometry"/>
                </mxCell>
                <mxCell id="17" value="" style="shape=flexArrow;endArrow=none;html=1;entryX=0;entryY=0;entryDx=67.5;entryDy=0;fillColor=#f8cecc;strokeColor=none;exitX=0.5;exitY=1;exitDx=0;exitDy=0;entryPerimeter=0;" parent="1" source="7" target="16" edge="1">
                    <mxGeometry width="50" height="50" relative="1" as="geometry">
                        <mxPoint x="270" y="365" as="sourcePoint"/>
                        <mxPoint x="-20" y="365" as="targetPoint"/>
                    </mxGeometry>
                </mxCell>
                <mxCell id="16" value="Header" style="shape=cube;whiteSpace=wrap;html=1;boundedLbl=1;backgroundOutline=1;darkOpacity=0.05;darkOpacity2=0.1;strokeColor=#b85450;strokeWidth=2;size=10;rotation=0;flipH=1;fillColor=#f8cecc;" parent="1" vertex="1">
                    <mxGeometry x="288" y="462" width="145" height="75" as="geometry"/>
                </mxCell>
                <mxCell id="32" value="" style="group" parent="1" vertex="1" connectable="0">
                    <mxGeometry x="270" y="295" width="200" height="110" as="geometry"/>
                </mxCell>
                <mxCell id="2" value="" style="rounded=1;whiteSpace=wrap;html=1;fillColor=#dae8fc;strokeColor=#6666FF;strokeWidth=4;" parent="32" vertex="1">
                    <mxGeometry x="10" width="190" height="90" as="geometry"/>
                </mxCell>
                <mxCell id="7" value="back-bone model" style="rounded=1;whiteSpace=wrap;html=1;fillColor=#dae8fc;strokeColor=#6666FF;strokeWidth=4;" parent="32" vertex="1">
                    <mxGeometry y="20" width="190" height="90" as="geometry"/>
                </mxCell>
                <mxCell id="36" value="" style="group" parent="1" vertex="1" connectable="0">
                    <mxGeometry x="80" y="405" width="40" height="200" as="geometry"/>
                </mxCell>
                <mxCell id="8" value="" style="rounded=0;whiteSpace=wrap;html=1;strokeColor=#6666FF;strokeWidth=2;container=0;" parent="36" vertex="1">
                    <mxGeometry width="40" height="200" as="geometry"/>
                </mxCell>
                <mxCell id="9" value="" style="ellipse;whiteSpace=wrap;html=1;aspect=fixed;strokeColor=#6666FF;strokeWidth=2;container=0;" parent="36" vertex="1">
                    <mxGeometry x="5" y="8" width="30" height="30" as="geometry"/>
                </mxCell>
                <mxCell id="10" value="" style="ellipse;whiteSpace=wrap;html=1;aspect=fixed;strokeColor=#6666FF;strokeWidth=2;container=0;" parent="36" vertex="1">
                    <mxGeometry x="5" y="48" width="30" height="30" as="geometry"/>
                </mxCell>
                <mxCell id="11" value="" style="ellipse;whiteSpace=wrap;html=1;aspect=fixed;strokeColor=#6666FF;strokeWidth=2;container=0;" parent="36" vertex="1">
                    <mxGeometry x="5" y="89" width="30" height="30" as="geometry"/>
                </mxCell>
                <mxCell id="12" value="" style="ellipse;whiteSpace=wrap;html=1;aspect=fixed;strokeColor=#6666FF;strokeWidth=2;container=0;" parent="36" vertex="1">
                    <mxGeometry x="5" y="167" width="30" height="30" as="geometry"/>
                </mxCell>
                <mxCell id="34" value="" style="ellipse;whiteSpace=wrap;html=1;aspect=fixed;strokeColor=#6666FF;strokeWidth=2;container=0;" parent="36" vertex="1">
                    <mxGeometry x="5" y="125" width="30" height="30" as="geometry"/>
                </mxCell>
                <mxCell id="38" value="" style="shape=flexArrow;endArrow=classic;html=1;exitX=0;exitY=0;exitDx=77.5;exitDy=75;exitPerimeter=0;entryX=0.5;entryY=0;entryDx=0;entryDy=0;fillColor=#d5e8d4;strokeColor=none;" parent="1" source="16" target="37" edge="1">
                    <mxGeometry width="50" height="50" relative="1" as="geometry">
                        <mxPoint x="460" y="510" as="sourcePoint"/>
                        <mxPoint x="510" y="460" as="targetPoint"/>
                    </mxGeometry>
                </mxCell>
                <mxCell id="43" value="Semamtic Segmentation head (Fully Convolutional layer)" style="text;html=1;strokeColor=none;fillColor=none;align=center;verticalAlign=middle;whiteSpace=wrap;rounded=0;strokeWidth=2;rotation=0;" parent="1" vertex="1">
                    <mxGeometry x="272" y="560" width="177" height="30" as="geometry"/>
                </mxCell>
                <mxCell id="44" value="" style="group" parent="1" vertex="1" connectable="0">
                    <mxGeometry x="300" y="640" width="110" height="110" as="geometry"/>
                </mxCell>
                <mxCell id="37" value="" style="whiteSpace=wrap;html=1;aspect=fixed;strokeColor=none;strokeWidth=1;fillColor=#ffe6cc;" parent="44" vertex="1">
                    <mxGeometry width="110" height="110" as="geometry"/>
                </mxCell>
                <mxCell id="39" value="" style="whiteSpace=wrap;html=1;aspect=fixed;strokeWidth=1;strokeColor=#000000;fillColor=#000000;" parent="44" vertex="1">
                    <mxGeometry width="50" height="50" as="geometry"/>
                </mxCell>
                <mxCell id="40" value="" style="whiteSpace=wrap;html=1;aspect=fixed;strokeWidth=1;fillColor=#808080;" parent="44" vertex="1">
                    <mxGeometry x="50" width="60" height="60" as="geometry"/>
                </mxCell>
                <mxCell id="41" value="" style="whiteSpace=wrap;html=1;aspect=fixed;strokeWidth=1;" parent="44" vertex="1">
                    <mxGeometry y="50" width="60" height="60" as="geometry"/>
                </mxCell>
                <mxCell id="42" value="" style="whiteSpace=wrap;html=1;aspect=fixed;strokeWidth=1;strokeColor=#000000;fillColor=#333333;" parent="44" vertex="1">
                    <mxGeometry x="50" y="50" width="60" height="60" as="geometry"/>
                </mxCell>
                <mxCell id="49" value="" style="shape=flexArrow;endArrow=classic;html=1;entryX=0;entryY=0.5;entryDx=0;entryDy=0;fillColor=#647687;strokeColor=#314354;startArrow=none;exitX=0.007;exitY=0.56;exitDx=0;exitDy=0;exitPerimeter=0;" parent="1" source="16" target="45" edge="1">
                    <mxGeometry width="50" height="50" relative="1" as="geometry">
                        <mxPoint x="658" y="559" as="sourcePoint"/>
                        <mxPoint x="490" y="559.5" as="targetPoint"/>
                    </mxGeometry>
                </mxCell>
                <mxCell id="51" value="" style="group" parent="1" vertex="1" connectable="0">
                    <mxGeometry x="650" y="450" width="110" height="110" as="geometry"/>
                </mxCell>
                <mxCell id="45" value="" style="whiteSpace=wrap;html=1;aspect=fixed;strokeColor=none;strokeWidth=1;fillColor=#ffe6cc;" parent="51" vertex="1">
                    <mxGeometry width="110" height="110" as="geometry"/>
                </mxCell>
                <mxCell id="46" value="" style="rounded=0;whiteSpace=wrap;html=1;" parent="51" vertex="1">
                    <mxGeometry x="10" y="31" width="20" height="48" as="geometry"/>
                </mxCell>
                <mxCell id="47" value="" style="rounded=0;whiteSpace=wrap;html=1;" parent="51" vertex="1">
                    <mxGeometry x="40" y="60" width="50" height="41" as="geometry"/>
                </mxCell>
                <mxCell id="48" value="" style="rounded=0;whiteSpace=wrap;html=1;" parent="51" vertex="1">
                    <mxGeometry x="50" y="6.5" width="20" height="23.5" as="geometry"/>
                </mxCell>
                <mxCell id="52" value="Classification head&amp;nbsp;" style="text;html=1;strokeColor=none;fillColor=none;align=center;verticalAlign=middle;whiteSpace=wrap;rounded=0;strokeWidth=2;rotation=0;" parent="1" vertex="1">
                    <mxGeometry x="470" y="462" width="130" height="30" as="geometry"/>
                </mxCell>
                <mxCell id="54" value="regression head&amp;nbsp;" style="text;html=1;strokeColor=none;fillColor=none;align=center;verticalAlign=middle;whiteSpace=wrap;rounded=0;strokeWidth=2;rotation=0;" parent="1" vertex="1">
                    <mxGeometry x="470" y="510" width="130" height="30" as="geometry"/>
                </mxCell>
            </root>
        </mxGraphModel>
    </diagram>
</mxfile>